<svg xmlns="http://www.w3.org/2000/svg" viewBox="0 0 256 256" role="img" aria-label="The Professors Academy icon">
  <defs>
    <linearGradient id="bg" x1="24" y1="18" x2="220" y2="236" gradientUnits="userSpaceOnUse">
      <stop offset="0" stop-color="#173553"/>
      <stop offset="0.58" stop-color="#0c1e31"/>
      <stop offset="1" stop-color="#07111b"/>
    </linearGradient>
    <radialGradient id="glowGold" cx="0" cy="0" r="1" gradientUnits="userSpaceOnUse" gradientTransform="translate(62 48) rotate(40) scale(164 130)">
      <stop offset="0" stop-color="#f5d36d" stop-opacity=".42"/>
      <stop offset="1" stop-color="#f5d36d" stop-opacity="0"/>
    </radialGradient>
    <radialGradient id="glowBlue" cx="0" cy="0" r="1" gradientUnits="userSpaceOnUse" gradientTransform="translate(194 214) rotate(180) scale(152 124)">
      <stop offset="0" stop-color="#2f5277" stop-opacity=".34"/>
      <stop offset="1" stop-color="#2f5277" stop-opacity="0"/>
    </radialGradient>
    <linearGradient id="gold" x1="66" y1="36" x2="188" y2="210" gradientUnits="userSpaceOnUse">
      <stop offset="0" stop-color="#ffe08a"/>
      <stop offset=".5" stop-color="#f0b90b"/>
      <stop offset="1" stop-color="#c58a10"/>
    </linearGradient>
    <linearGradient id="paper" x1="88" y1="102" x2="164" y2="170" gradientUnits="userSpaceOnUse">
      <stop offset="0" stop-color="#fffaf0"/>
      <stop offset="1" stop-color="#efe0b8"/>
    </linearGradient>
  </defs>
  <rect width="256" height="256" rx="56" fill="url(#bg)"/>
  <rect width="256" height="256" rx="56" fill="url(#glowGold)"/>
  <rect width="256" height="256" rx="56" fill="url(#glowBlue)"/>
  <rect x="16" y="16" width="224" height="224" rx="46" fill="none" stroke="#ffffff" stroke-opacity=".08"/>
  <path d="M128 40c26 15 49 23 70 25v56c0 44-25 73-70 99-45-26-70-55-70-99V65c21-2 44-10 70-25Z" fill="#081522" stroke="url(#gold)" stroke-width="8" stroke-linejoin="round"/>
  <path d="M128 54c20 11 38 17 54 19v45c0 35-20 60-54 81-34-21-54-46-54-81V73c16-2 34-8 54-19Z" fill="none" stroke="#2a4d6f" stroke-width="3"/>
  <circle cx="128" cy="69" r="10" fill="url(#gold)"/>
  <path d="M84 112c14-10 29-15 44-15 15 0 30 5 44 15v51c-14-8-29-12-44-12-15 0-30 4-44 12Z" fill="#f8efd9" opacity=".16"/>
  <path d="M86 108c12-8 26-12 42-12v56c-14-8-28-12-42-12Z" fill="url(#paper)" stroke="#d2b35a" stroke-width="3" stroke-linejoin="round"/>
  <path d="M170 108c-12-8-26-12-42-12v56c14-8 28-12 42-12Z" fill="url(#paper)" stroke="#d2b35a" stroke-width="3" stroke-linejoin="round"/>
  <path d="M128 97v56" stroke="#cc9e23" stroke-width="4" stroke-linecap="round"/>
  <path d="M96 122c9 5 20 8 32 8 12 0 23-3 32-8" fill="none" stroke="#d5ddea" stroke-width="2.5" stroke-linecap="round"/>
  <path d="M87 177h82" stroke="#24435e" stroke-width="3" opacity=".85"/>
  <rect x="82" y="174" width="92" height="28" rx="14" fill="url(#gold)" stroke="#f5d36d" stroke-width="2"/>
  <text x="128" y="193" text-anchor="middle" font-family="Georgia, 'Times New Roman', serif" font-size="22" font-weight="700" fill="#0a1929" letter-spacing="2">TPA</text>
  <path d="M73 170c-8-10-12-21-12-35" fill="none" stroke="#e1bb48" stroke-width="4" stroke-linecap="round" opacity=".88"/>
  <path d="M183 170c8-10 12-21 12-35" fill="none" stroke="#e1bb48" stroke-width="4" stroke-linecap="round" opacity=".88"/>
  <path d="M68 148c-4-4-8-9-10-15" fill="none" stroke="#e1bb48" stroke-width="4" stroke-linecap="round" opacity=".88"/>
  <path d="M188 148c4-4 8-9 10-15" fill="none" stroke="#e1bb48" stroke-width="4" stroke-linecap="round" opacity=".88"/>
</svg>
